<svg xmlns="http://www.w3.org/2000/svg" xmlns:xlink="http://www.w3.org/1999/xlink"  x="0px" y="0px" viewBox="0 0 80 80" xml:space="preserve"><g id="XMLID_2_">	<path id="XMLID_4_" fill-rule="evenodd" clip-rule="evenodd" fill="#FFFFFF" d="M21.106,22.084l0.001-0.003l0,0l0.001-0.001  l0.001-0.002l0.002-0.001l0.001-0.001h0.001v-0.001l0.003-0.002c0.057-0.053,0.921-0.908-0.353-2.182L7.753,6.882  C7.751,6.881,7.214,6.275,8.16,5.329c0.869-0.869,1.757,0.026,3.784,2.07l0.629,0.63l10.734,10.732  c0.286,0.286,0.583,0.389,0.839,0.362c0.137-0.016,0.263-0.068,0.368-0.15c0.106-0.082,0.19-0.194,0.245-0.324  c0.11-0.264,0.101-0.608-0.096-0.966c-0.499-0.906-8.746-8.886-11.998-12.032c-0.691-0.669-1.157-1.12-1.274-1.236  c-0.358-0.359-0.669-0.702-0.828-1.061c-0.164-0.369-0.168-0.752,0.097-1.176c0.262-0.42,0.648-0.752,1.232-0.704  c0.568,0.049,1.32,0.465,2.325,1.532c1.494,1.589,9.227,9.274,13.962,13.981c1.569,1.56,2.813,2.794,3.36,3.343  c1.343,1.344,2.392,3.303,2.232,5.589c-0.057,0.805-0.263,1.651-0.661,2.523c0.04,0.026,0.078,0.052,0.115,0.08  c0.068,0.052,0.134,0.109,0.196,0.17c0.47,0.47,0.65,1.15,0.567,1.899c0.027,0.017,0.054,0.035,0.078,0.053  c0.049,0.037,0.096,0.077,0.141,0.122c0.381,0.38,0.474,0.974,0.316,1.625c-0.011,0.047-0.023,0.091-0.036,0.137  c1.631,1.631,3.145,3.131,4.56,4.515l0.001,0.001l0.001,0.001l0.054,0.052c0.145,0.153,0.498,0.621,0.173,1.25  c-0.4,0.772-1.345,1.66-1.803,1.831c-0.457,0.172-1.145,0.101-1.408-0.167l-0.001-0.001c-1.382-1.412-2.878-2.924-4.506-4.551  c-0.047,0.014-0.091,0.026-0.138,0.037c-0.651,0.158-1.245,0.065-1.625-0.317c-0.045-0.045-0.085-0.091-0.121-0.141  c-0.018-0.024-0.036-0.051-0.053-0.078c-0.749,0.083-1.429-0.097-1.899-0.567c-0.061-0.061-0.118-0.127-0.17-0.196  c-0.028-0.037-0.054-0.075-0.08-0.115c-0.872,0.397-1.717,0.604-2.523,0.661c-2.285,0.16-4.244-0.889-5.588-2.232  c-0.549-0.548-1.783-1.792-3.344-3.361C11.31,24.411,3.625,16.678,2.036,15.184c-1.066-1.005-1.483-1.757-1.532-2.325  c-0.049-0.584,0.284-0.97,0.705-1.233c0.424-0.265,0.806-0.261,1.176-0.097c0.359,0.161,0.703,0.471,1.06,0.829  c0.117,0.117,0.569,0.583,1.236,1.274c3.147,3.253,11.127,11.5,12.033,11.999c0.358,0.196,0.703,0.206,0.966,0.095  c0.131-0.054,0.243-0.14,0.324-0.245c0.083-0.105,0.136-0.231,0.15-0.368c0.027-0.255-0.074-0.552-0.361-0.839L7.061,13.542  l-0.63-0.629c-2.043-2.027-2.938-2.915-2.07-3.784C5.306,8.183,5.912,8.72,5.914,8.722l13.009,13.008  C20.197,23.005,21.051,22.141,21.106,22.084L21.106,22.084z M45.457,43.16c8.665,8.014,13.05,10.774,20.748,15.618  c1.717,1.08,3.598,2.263,5.719,3.627c1.631,1.048,3.085,2.166,4.173,3.425c1.087,1.259,1.807,2.661,1.975,4.277  c0.184,0.252,2.681,3.837-1.205,7.724l-0.003,0.002l-0.002,0.003c-3.889,3.886-7.473,1.389-7.724,1.205  c-1.617-0.168-3.019-0.888-4.278-1.976c-1.259-1.087-2.375-2.541-3.424-4.172c-1.364-2.122-2.547-4.003-3.627-5.72  c-4.826-7.668-7.583-12.049-15.527-20.648l0,0c0,0-0.818-1.127-0.217-2.129c0.601-1.002,2.247-2.286,3.386-1.242L45.457,43.16z"></path>	<path id="XMLID_3_" fill-rule="evenodd" clip-rule="evenodd" fill="#FFFFFF" d="M74.824,7.293c-2.31-2.31-5.766-3.034-9.485-2.338  c-3.709,0.694-7.684,2.803-11.043,6.162c-3.36,3.359-5.469,7.334-6.162,11.043c-0.435,2.323-0.315,4.542,0.398,6.444  c-0.052,0.031-0.104,0.067-0.154,0.105l-0.003,0.002c-0.062,0.048-0.122,0.101-0.18,0.156c-0.437,0.439-0.614,1.064-0.551,1.746  c-0.041,0.025-0.081,0.053-0.119,0.082c-0.05,0.039-0.096,0.08-0.142,0.124c-0.384,0.385-0.51,0.954-0.401,1.561  c0.008,0.042,0.017,0.086,0.025,0.128C29.804,49.709,25.498,52.586,15.221,59.457c-1.691,1.131-3.544,2.369-5.659,3.809  c-1.614,1.099-3.066,2.252-4.177,3.516c-1.112,1.264-1.886,2.639-2.149,4.184c-0.182,0.239-2.796,3.807,0.651,7.258l0.002,0.003  l0.004,0.003c3.45,3.447,7.019,0.833,7.257,0.65c1.545-0.261,2.92-1.035,4.185-2.147c1.263-1.111,2.417-2.562,3.515-4.178  c1.439-2.113,2.679-3.966,3.808-5.658c6.87-10.277,9.748-14.583,26.951-31.787c0.042,0.01,0.084,0.019,0.126,0.026  c0.61,0.108,1.178-0.017,1.562-0.402c0.044-0.044,0.085-0.092,0.124-0.141l0.001-0.001c0.029-0.038,0.056-0.077,0.081-0.118  c0.682,0.062,1.307-0.114,1.745-0.553c0.057-0.057,0.11-0.118,0.159-0.181c0.037-0.051,0.073-0.102,0.105-0.154  c1.902,0.713,4.121,0.832,6.443,0.398c3.71-0.696,7.685-2.805,11.043-6.163c3.359-3.359,5.468-7.334,6.163-11.044  C77.857,13.058,77.133,9.602,74.824,7.293z"></path></g></svg>